<svg xmlns="http://www.w3.org/2000/svg" xmlns:xlink="http://www.w3.org/1999/xlink" width="20" height="20" preserveAspectRatio="xMidYMid meet" viewBox="0 0 20 20" style="-ms-transform: rotate(360deg); -webkit-transform: rotate(360deg); transform: rotate(360deg);"><path fill-rule="evenodd" d="M10 12v8A10 10 0 0 1 8.17.17L10 2h5a5 5 0 0 1 5 4.99v9.02A4 4 0 0 1 16 20v-2a2 2 0 1 0 0-4h-4l-2-2zm5.5-3a1.5 1.5 0 1 0 0-3a1.5 1.5 0 0 0 0 3z" fill="#ffffffff"/><rect x="0" y="0" width="20" height="20" fill="rgba(0, 0, 0, 0)" /></svg>